<mxfile host="app.diagrams.net" agent="Mozilla/5.0 (Windows NT 10.0; Win64; x64) AppleWebKit/537.36 (KHTML, like Gecko) Chrome/131.0.0.0 Safari/537.36" version="25.0.3">
  <diagram name="Page-1" id="HB7E5a8Te02KWCHFkE5X">
    <mxGraphModel dx="1018" dy="1607" grid="1" gridSize="10" guides="1" tooltips="1" connect="1" arrows="1" fold="1" page="1" pageScale="1" pageWidth="850" pageHeight="1100" math="0" shadow="0">
      <root>
        <mxCell id="0" />
        <mxCell id="1" parent="0" />
        <mxCell id="jqqaf2TlsOP0auP5mLFc-32" value="" style="rounded=0;whiteSpace=wrap;html=1;dashed=1;dashPattern=8 8;" vertex="1" parent="1">
          <mxGeometry x="800" y="-210" width="850" height="400" as="geometry" />
        </mxCell>
        <mxCell id="F14II7xJjJFJrzi5FcKY-130" value="" style="rounded=0;whiteSpace=wrap;html=1;dashed=1;dashPattern=8 8;" parent="1" vertex="1">
          <mxGeometry x="310" y="254.73" width="1220" height="525.27" as="geometry" />
        </mxCell>
        <mxCell id="dSo5o6ENgOn3KIxEwk0V-3" value="" style="endArrow=none;html=1;rounded=0;exitX=1.001;exitY=0.191;exitDx=0;exitDy=0;exitPerimeter=0;entryX=0.001;entryY=0.881;entryDx=0;entryDy=0;entryPerimeter=0;" parent="1" source="3K-KdEBF6QyR_X1sGFoG-324" target="3K-KdEBF6QyR_X1sGFoG-241" edge="1">
          <mxGeometry width="50" height="50" relative="1" as="geometry">
            <mxPoint x="1210" y="620" as="sourcePoint" />
            <mxPoint x="1260" y="570" as="targetPoint" />
            <Array as="points">
              <mxPoint x="1200" y="620" />
              <mxPoint x="1200" y="560" />
            </Array>
          </mxGeometry>
        </mxCell>
        <mxCell id="dSo5o6ENgOn3KIxEwk0V-1" value="" style="endArrow=none;html=1;rounded=0;exitX=1.004;exitY=0.643;exitDx=0;exitDy=0;exitPerimeter=0;entryX=0.009;entryY=0.17;entryDx=0;entryDy=0;entryPerimeter=0;" parent="1" source="3K-KdEBF6QyR_X1sGFoG-310" target="3K-KdEBF6QyR_X1sGFoG-241" edge="1">
          <mxGeometry width="50" height="50" relative="1" as="geometry">
            <mxPoint x="1180" y="460" as="sourcePoint" />
            <mxPoint x="1230" y="410" as="targetPoint" />
            <Array as="points">
              <mxPoint x="1180" y="360" />
              <mxPoint x="1200" y="440" />
            </Array>
          </mxGeometry>
        </mxCell>
        <mxCell id="3K-KdEBF6QyR_X1sGFoG-4" value="" style="endArrow=none;html=1;rounded=0;" parent="1" edge="1">
          <mxGeometry width="50" height="50" relative="1" as="geometry">
            <mxPoint x="270" y="320" as="sourcePoint" />
            <mxPoint x="350" y="320" as="targetPoint" />
          </mxGeometry>
        </mxCell>
        <mxCell id="3K-KdEBF6QyR_X1sGFoG-10" value="" style="endArrow=none;html=1;rounded=0;" parent="1" edge="1">
          <mxGeometry width="50" height="50" relative="1" as="geometry">
            <mxPoint x="270" y="360" as="sourcePoint" />
            <mxPoint x="350" y="360" as="targetPoint" />
          </mxGeometry>
        </mxCell>
        <mxCell id="3K-KdEBF6QyR_X1sGFoG-18" value="" style="endArrow=none;html=1;rounded=0;" parent="1" edge="1">
          <mxGeometry width="50" height="50" relative="1" as="geometry">
            <mxPoint x="270" y="440" as="sourcePoint" />
            <mxPoint x="350" y="440" as="targetPoint" />
          </mxGeometry>
        </mxCell>
        <mxCell id="3K-KdEBF6QyR_X1sGFoG-22" value="S1" style="text;html=1;align=center;verticalAlign=middle;whiteSpace=wrap;rounded=0;" parent="1" vertex="1">
          <mxGeometry x="230" y="290" width="60" height="30" as="geometry" />
        </mxCell>
        <mxCell id="3K-KdEBF6QyR_X1sGFoG-23" value="S2" style="text;html=1;align=center;verticalAlign=middle;whiteSpace=wrap;rounded=0;" parent="1" vertex="1">
          <mxGeometry x="230" y="330" width="60" height="30" as="geometry" />
        </mxCell>
        <mxCell id="3K-KdEBF6QyR_X1sGFoG-24" value="....." style="text;html=1;align=center;verticalAlign=middle;whiteSpace=wrap;rounded=0;rotation=90;" parent="1" vertex="1">
          <mxGeometry x="284.5" y="390" width="60" height="30" as="geometry" />
        </mxCell>
        <mxCell id="3K-KdEBF6QyR_X1sGFoG-25" value="S5" style="text;html=1;align=center;verticalAlign=middle;whiteSpace=wrap;rounded=0;" parent="1" vertex="1">
          <mxGeometry x="230" y="410" width="60" height="30" as="geometry" />
        </mxCell>
        <mxCell id="3K-KdEBF6QyR_X1sGFoG-59" value="" style="endArrow=none;html=1;rounded=0;" parent="1" edge="1">
          <mxGeometry width="50" height="50" relative="1" as="geometry">
            <mxPoint x="270" y="520" as="sourcePoint" />
            <mxPoint x="350" y="520" as="targetPoint" />
          </mxGeometry>
        </mxCell>
        <mxCell id="3K-KdEBF6QyR_X1sGFoG-63" value="" style="endArrow=none;html=1;rounded=0;" parent="1" edge="1">
          <mxGeometry width="50" height="50" relative="1" as="geometry">
            <mxPoint x="270" y="560" as="sourcePoint" />
            <mxPoint x="350" y="560" as="targetPoint" />
          </mxGeometry>
        </mxCell>
        <mxCell id="3K-KdEBF6QyR_X1sGFoG-67" value="" style="endArrow=none;html=1;rounded=0;" parent="1" edge="1">
          <mxGeometry width="50" height="50" relative="1" as="geometry">
            <mxPoint x="270" y="640" as="sourcePoint" />
            <mxPoint x="350" y="640" as="targetPoint" />
          </mxGeometry>
        </mxCell>
        <mxCell id="3K-KdEBF6QyR_X1sGFoG-71" value="S21" style="text;html=1;align=center;verticalAlign=middle;whiteSpace=wrap;rounded=0;" parent="1" vertex="1">
          <mxGeometry x="230" y="490" width="60" height="30" as="geometry" />
        </mxCell>
        <mxCell id="3K-KdEBF6QyR_X1sGFoG-72" value="S22" style="text;html=1;align=center;verticalAlign=middle;whiteSpace=wrap;rounded=0;" parent="1" vertex="1">
          <mxGeometry x="230" y="530" width="60" height="30" as="geometry" />
        </mxCell>
        <mxCell id="3K-KdEBF6QyR_X1sGFoG-73" value="....." style="text;html=1;align=center;verticalAlign=middle;whiteSpace=wrap;rounded=0;rotation=90;" parent="1" vertex="1">
          <mxGeometry x="284.5" y="590" width="60" height="30" as="geometry" />
        </mxCell>
        <mxCell id="3K-KdEBF6QyR_X1sGFoG-74" value="S25" style="text;html=1;align=center;verticalAlign=middle;whiteSpace=wrap;rounded=0;" parent="1" vertex="1">
          <mxGeometry x="230" y="610" width="60" height="30" as="geometry" />
        </mxCell>
        <mxCell id="3K-KdEBF6QyR_X1sGFoG-75" value="....." style="text;html=1;align=center;verticalAlign=middle;whiteSpace=wrap;rounded=0;rotation=90;" parent="1" vertex="1">
          <mxGeometry x="284.5" y="470" width="60" height="30" as="geometry" />
        </mxCell>
        <mxCell id="3K-KdEBF6QyR_X1sGFoG-76" value="SortAscending5 (Row0)" style="rounded=0;whiteSpace=wrap;html=1;" parent="1" vertex="1">
          <mxGeometry x="350" y="300" width="120" height="170" as="geometry" />
        </mxCell>
        <mxCell id="3K-KdEBF6QyR_X1sGFoG-77" value="SortAscending5 (Row4)" style="rounded=0;whiteSpace=wrap;html=1;" parent="1" vertex="1">
          <mxGeometry x="350" y="500" width="120" height="170" as="geometry" />
        </mxCell>
        <mxCell id="3K-KdEBF6QyR_X1sGFoG-78" value="" style="endArrow=none;html=1;rounded=0;entryX=-0.011;entryY=0.108;entryDx=0;entryDy=0;entryPerimeter=0;" parent="1" target="3K-KdEBF6QyR_X1sGFoG-115" edge="1">
          <mxGeometry width="50" height="50" relative="1" as="geometry">
            <mxPoint x="470" y="320" as="sourcePoint" />
            <mxPoint x="550" y="320" as="targetPoint" />
          </mxGeometry>
        </mxCell>
        <mxCell id="3K-KdEBF6QyR_X1sGFoG-86" value="" style="endArrow=none;html=1;rounded=0;" parent="1" edge="1">
          <mxGeometry width="50" height="50" relative="1" as="geometry">
            <mxPoint x="470" y="360" as="sourcePoint" />
            <mxPoint x="550" y="360" as="targetPoint" />
          </mxGeometry>
        </mxCell>
        <mxCell id="3K-KdEBF6QyR_X1sGFoG-90" value="" style="endArrow=none;html=1;rounded=0;entryX=-0.023;entryY=0.128;entryDx=0;entryDy=0;entryPerimeter=0;" parent="1" target="3K-KdEBF6QyR_X1sGFoG-116" edge="1">
          <mxGeometry width="50" height="50" relative="1" as="geometry">
            <mxPoint x="470" y="440" as="sourcePoint" />
            <mxPoint x="550" y="440" as="targetPoint" />
            <Array as="points">
              <mxPoint x="550" y="440" />
              <mxPoint x="590" y="520" />
            </Array>
          </mxGeometry>
        </mxCell>
        <mxCell id="3K-KdEBF6QyR_X1sGFoG-94" value="" style="endArrow=none;html=1;rounded=0;entryX=-0.006;entryY=0.826;entryDx=0;entryDy=0;entryPerimeter=0;" parent="1" target="3K-KdEBF6QyR_X1sGFoG-115" edge="1">
          <mxGeometry width="50" height="50" relative="1" as="geometry">
            <mxPoint x="470" y="520" as="sourcePoint" />
            <mxPoint x="550" y="520" as="targetPoint" />
            <Array as="points">
              <mxPoint x="550" y="520" />
              <mxPoint x="590" y="440" />
            </Array>
          </mxGeometry>
        </mxCell>
        <mxCell id="3K-KdEBF6QyR_X1sGFoG-103" value="" style="endArrow=none;html=1;rounded=0;" parent="1" edge="1">
          <mxGeometry width="50" height="50" relative="1" as="geometry">
            <mxPoint x="470" y="560" as="sourcePoint" />
            <mxPoint x="550" y="560" as="targetPoint" />
          </mxGeometry>
        </mxCell>
        <mxCell id="3K-KdEBF6QyR_X1sGFoG-107" value="" style="endArrow=none;html=1;rounded=0;entryX=-0.004;entryY=0.827;entryDx=0;entryDy=0;entryPerimeter=0;" parent="1" target="3K-KdEBF6QyR_X1sGFoG-116" edge="1">
          <mxGeometry width="50" height="50" relative="1" as="geometry">
            <mxPoint x="470" y="640" as="sourcePoint" />
            <mxPoint x="550" y="640" as="targetPoint" />
          </mxGeometry>
        </mxCell>
        <mxCell id="3K-KdEBF6QyR_X1sGFoG-111" value="min1" style="text;html=1;align=center;verticalAlign=middle;whiteSpace=wrap;rounded=0;" parent="1" vertex="1">
          <mxGeometry x="459" y="290" width="60" height="30" as="geometry" />
        </mxCell>
        <mxCell id="3K-KdEBF6QyR_X1sGFoG-112" value="max1" style="text;html=1;align=center;verticalAlign=middle;whiteSpace=wrap;rounded=0;" parent="1" vertex="1">
          <mxGeometry x="459" y="440" width="60" height="30" as="geometry" />
        </mxCell>
        <mxCell id="3K-KdEBF6QyR_X1sGFoG-113" value="min5" style="text;html=1;align=center;verticalAlign=middle;whiteSpace=wrap;rounded=0;" parent="1" vertex="1">
          <mxGeometry x="459" y="490" width="60" height="30" as="geometry" />
        </mxCell>
        <mxCell id="3K-KdEBF6QyR_X1sGFoG-114" value="max5" style="text;html=1;align=center;verticalAlign=middle;whiteSpace=wrap;rounded=0;" parent="1" vertex="1">
          <mxGeometry x="459" y="610" width="60" height="30" as="geometry" />
        </mxCell>
        <mxCell id="3K-KdEBF6QyR_X1sGFoG-115" value="SortAscending5 (Col0)" style="rounded=0;whiteSpace=wrap;html=1;" parent="1" vertex="1">
          <mxGeometry x="620" y="300" width="120" height="170" as="geometry" />
        </mxCell>
        <mxCell id="3K-KdEBF6QyR_X1sGFoG-116" value="SortAscending5 (Col4)" style="rounded=0;whiteSpace=wrap;html=1;" parent="1" vertex="1">
          <mxGeometry x="620" y="500" width="120" height="170" as="geometry" />
        </mxCell>
        <mxCell id="3K-KdEBF6QyR_X1sGFoG-141" value="" style="endArrow=none;html=1;rounded=0;" parent="1" edge="1">
          <mxGeometry width="50" height="50" relative="1" as="geometry">
            <mxPoint x="740" y="320" as="sourcePoint" />
            <mxPoint x="820" y="320" as="targetPoint" />
          </mxGeometry>
        </mxCell>
        <mxCell id="3K-KdEBF6QyR_X1sGFoG-145" value="" style="endArrow=none;html=1;rounded=0;" parent="1" edge="1">
          <mxGeometry width="50" height="50" relative="1" as="geometry">
            <mxPoint x="740" y="360" as="sourcePoint" />
            <mxPoint x="820" y="360" as="targetPoint" />
          </mxGeometry>
        </mxCell>
        <mxCell id="3K-KdEBF6QyR_X1sGFoG-153" value="" style="endArrow=none;html=1;rounded=0;" parent="1" edge="1">
          <mxGeometry width="50" height="50" relative="1" as="geometry">
            <mxPoint x="740" y="440" as="sourcePoint" />
            <mxPoint x="820" y="440" as="targetPoint" />
          </mxGeometry>
        </mxCell>
        <mxCell id="3K-KdEBF6QyR_X1sGFoG-183" value="" style="endArrow=none;html=1;rounded=0;entryX=-0.012;entryY=0.653;entryDx=0;entryDy=0;entryPerimeter=0;" parent="1" target="3K-KdEBF6QyR_X1sGFoG-196" edge="1">
          <mxGeometry width="50" height="50" relative="1" as="geometry">
            <mxPoint x="740" y="520" as="sourcePoint" />
            <mxPoint x="820" y="520" as="targetPoint" />
          </mxGeometry>
        </mxCell>
        <mxCell id="3K-KdEBF6QyR_X1sGFoG-187" value="" style="endArrow=none;html=1;rounded=0;entryX=0;entryY=0.132;entryDx=0;entryDy=0;entryPerimeter=0;" parent="1" edge="1">
          <mxGeometry width="50" height="50" relative="1" as="geometry">
            <mxPoint x="740" y="560" as="sourcePoint" />
            <mxPoint x="860" y="622.44" as="targetPoint" />
            <Array as="points">
              <mxPoint x="810" y="560" />
              <mxPoint x="830" y="622" />
            </Array>
          </mxGeometry>
        </mxCell>
        <mxCell id="3K-KdEBF6QyR_X1sGFoG-191" value="" style="endArrow=none;html=1;rounded=0;" parent="1" edge="1">
          <mxGeometry width="50" height="50" relative="1" as="geometry">
            <mxPoint x="740" y="640" as="sourcePoint" />
            <mxPoint x="820" y="640" as="targetPoint" />
          </mxGeometry>
        </mxCell>
        <mxCell id="3K-KdEBF6QyR_X1sGFoG-196" value="SortAscending5 (Diag1)" style="rounded=0;whiteSpace=wrap;html=1;" parent="1" vertex="1">
          <mxGeometry x="860" y="410" width="120" height="170" as="geometry" />
        </mxCell>
        <mxCell id="3K-KdEBF6QyR_X1sGFoG-198" value="" style="endArrow=none;html=1;rounded=0;entryX=0.003;entryY=0.526;entryDx=0;entryDy=0;entryPerimeter=0;" parent="1" target="3K-KdEBF6QyR_X1sGFoG-308" edge="1">
          <mxGeometry width="50" height="50" relative="1" as="geometry">
            <mxPoint x="740" y="410" as="sourcePoint" />
            <mxPoint x="860" y="360" as="targetPoint" />
            <Array as="points">
              <mxPoint x="810" y="410" />
              <mxPoint x="860" y="320" />
            </Array>
          </mxGeometry>
        </mxCell>
        <mxCell id="3K-KdEBF6QyR_X1sGFoG-202" value="....." style="text;html=1;align=center;verticalAlign=middle;whiteSpace=wrap;rounded=0;rotation=90;" parent="1" vertex="1">
          <mxGeometry x="754.5" y="456.3" width="60" height="30" as="geometry" />
        </mxCell>
        <mxCell id="3K-KdEBF6QyR_X1sGFoG-224" value="" style="endArrow=none;html=1;rounded=0;entryX=0;entryY=0.5;entryDx=0;entryDy=0;" parent="1" target="3K-KdEBF6QyR_X1sGFoG-241" edge="1">
          <mxGeometry width="50" height="50" relative="1" as="geometry">
            <mxPoint x="980" y="496.3" as="sourcePoint" />
            <mxPoint x="1060" y="496.3" as="targetPoint" />
          </mxGeometry>
        </mxCell>
        <mxCell id="3K-KdEBF6QyR_X1sGFoG-239" value="mid" style="text;html=1;align=center;verticalAlign=middle;whiteSpace=wrap;rounded=0;" parent="1" vertex="1">
          <mxGeometry x="1235.5" y="470" width="60" height="30" as="geometry" />
        </mxCell>
        <mxCell id="3K-KdEBF6QyR_X1sGFoG-240" value="min" style="text;html=1;align=center;verticalAlign=middle;whiteSpace=wrap;rounded=0;" parent="1" vertex="1">
          <mxGeometry x="1235.5" y="530" width="60" height="30" as="geometry" />
        </mxCell>
        <mxCell id="3K-KdEBF6QyR_X1sGFoG-241" value="SortingNetwork" style="rounded=0;whiteSpace=wrap;html=1;" parent="1" vertex="1">
          <mxGeometry x="1370" y="410" width="120" height="170" as="geometry" />
        </mxCell>
        <mxCell id="3K-KdEBF6QyR_X1sGFoG-243" value="" style="endArrow=none;html=1;rounded=0;exitX=1;exitY=0.5;exitDx=0;exitDy=0;" parent="1" source="3K-KdEBF6QyR_X1sGFoG-241" edge="1">
          <mxGeometry width="50" height="50" relative="1" as="geometry">
            <mxPoint x="1360" y="500" as="sourcePoint" />
            <mxPoint x="1590" y="495" as="targetPoint" />
          </mxGeometry>
        </mxCell>
        <mxCell id="3K-KdEBF6QyR_X1sGFoG-244" value="median_o" style="text;html=1;align=center;verticalAlign=middle;whiteSpace=wrap;rounded=0;" parent="1" vertex="1">
          <mxGeometry x="1600" y="470" width="60" height="30" as="geometry" />
        </mxCell>
        <mxCell id="3K-KdEBF6QyR_X1sGFoG-246" value="SortAscending5" style="rounded=0;whiteSpace=wrap;html=1;" parent="1" vertex="1">
          <mxGeometry x="320" y="-40" width="120" height="220" as="geometry" />
        </mxCell>
        <mxCell id="3K-KdEBF6QyR_X1sGFoG-247" value="" style="endArrow=classic;html=1;rounded=0;entryX=0.02;entryY=0.183;entryDx=0;entryDy=0;entryPerimeter=0;" parent="1" target="3K-KdEBF6QyR_X1sGFoG-246" edge="1">
          <mxGeometry width="50" height="50" relative="1" as="geometry">
            <mxPoint x="200" as="sourcePoint" />
            <mxPoint x="250" y="-50" as="targetPoint" />
          </mxGeometry>
        </mxCell>
        <mxCell id="3K-KdEBF6QyR_X1sGFoG-248" value="S1" style="text;html=1;align=center;verticalAlign=middle;whiteSpace=wrap;rounded=0;" parent="1" vertex="1">
          <mxGeometry x="210" y="-30" width="60" height="30" as="geometry" />
        </mxCell>
        <mxCell id="3K-KdEBF6QyR_X1sGFoG-249" value="" style="endArrow=classic;html=1;rounded=0;entryX=-0.001;entryY=0.36;entryDx=0;entryDy=0;entryPerimeter=0;" parent="1" target="3K-KdEBF6QyR_X1sGFoG-246" edge="1">
          <mxGeometry width="50" height="50" relative="1" as="geometry">
            <mxPoint x="200" y="40" as="sourcePoint" />
            <mxPoint x="322" y="41" as="targetPoint" />
          </mxGeometry>
        </mxCell>
        <mxCell id="3K-KdEBF6QyR_X1sGFoG-250" value="S2" style="text;html=1;align=center;verticalAlign=middle;whiteSpace=wrap;rounded=0;" parent="1" vertex="1">
          <mxGeometry x="210" y="10" width="60" height="30" as="geometry" />
        </mxCell>
        <mxCell id="3K-KdEBF6QyR_X1sGFoG-251" value="" style="endArrow=classic;html=1;rounded=0;entryX=0.02;entryY=0.183;entryDx=0;entryDy=0;entryPerimeter=0;" parent="1" edge="1">
          <mxGeometry width="50" height="50" relative="1" as="geometry">
            <mxPoint x="198" y="80" as="sourcePoint" />
            <mxPoint x="320" y="81" as="targetPoint" />
          </mxGeometry>
        </mxCell>
        <mxCell id="3K-KdEBF6QyR_X1sGFoG-252" value="S3" style="text;html=1;align=center;verticalAlign=middle;whiteSpace=wrap;rounded=0;" parent="1" vertex="1">
          <mxGeometry x="210" y="50" width="60" height="30" as="geometry" />
        </mxCell>
        <mxCell id="3K-KdEBF6QyR_X1sGFoG-253" value="" style="endArrow=classic;html=1;rounded=0;entryX=0.001;entryY=0.728;entryDx=0;entryDy=0;entryPerimeter=0;" parent="1" target="3K-KdEBF6QyR_X1sGFoG-246" edge="1">
          <mxGeometry width="50" height="50" relative="1" as="geometry">
            <mxPoint x="199" y="120" as="sourcePoint" />
            <mxPoint x="321" y="121" as="targetPoint" />
          </mxGeometry>
        </mxCell>
        <mxCell id="3K-KdEBF6QyR_X1sGFoG-254" value="" style="endArrow=classic;html=1;rounded=0;entryX=0.02;entryY=0.183;entryDx=0;entryDy=0;entryPerimeter=0;" parent="1" edge="1">
          <mxGeometry width="50" height="50" relative="1" as="geometry">
            <mxPoint x="198" y="160" as="sourcePoint" />
            <mxPoint x="320" y="161" as="targetPoint" />
          </mxGeometry>
        </mxCell>
        <mxCell id="3K-KdEBF6QyR_X1sGFoG-256" value="S4" style="text;html=1;align=center;verticalAlign=middle;whiteSpace=wrap;rounded=0;" parent="1" vertex="1">
          <mxGeometry x="210" y="90" width="60" height="30" as="geometry" />
        </mxCell>
        <mxCell id="3K-KdEBF6QyR_X1sGFoG-257" value="S5" style="text;html=1;align=center;verticalAlign=middle;whiteSpace=wrap;rounded=0;" parent="1" vertex="1">
          <mxGeometry x="210" y="130" width="60" height="30" as="geometry" />
        </mxCell>
        <mxCell id="3K-KdEBF6QyR_X1sGFoG-258" value="" style="endArrow=classic;html=1;rounded=0;entryX=0.02;entryY=0.183;entryDx=0;entryDy=0;entryPerimeter=0;" parent="1" edge="1">
          <mxGeometry width="50" height="50" relative="1" as="geometry">
            <mxPoint x="442" as="sourcePoint" />
            <mxPoint x="564" as="targetPoint" />
          </mxGeometry>
        </mxCell>
        <mxCell id="3K-KdEBF6QyR_X1sGFoG-259" value="min" style="text;html=1;align=center;verticalAlign=middle;whiteSpace=wrap;rounded=0;" parent="1" vertex="1">
          <mxGeometry x="452" y="-30" width="60" height="30" as="geometry" />
        </mxCell>
        <mxCell id="3K-KdEBF6QyR_X1sGFoG-260" value="" style="endArrow=classic;html=1;rounded=0;entryX=0.02;entryY=0.183;entryDx=0;entryDy=0;entryPerimeter=0;" parent="1" edge="1">
          <mxGeometry width="50" height="50" relative="1" as="geometry">
            <mxPoint x="442" y="40" as="sourcePoint" />
            <mxPoint x="564" y="41" as="targetPoint" />
          </mxGeometry>
        </mxCell>
        <mxCell id="3K-KdEBF6QyR_X1sGFoG-261" value="out2" style="text;html=1;align=center;verticalAlign=middle;whiteSpace=wrap;rounded=0;" parent="1" vertex="1">
          <mxGeometry x="452" y="10" width="60" height="30" as="geometry" />
        </mxCell>
        <mxCell id="3K-KdEBF6QyR_X1sGFoG-262" value="" style="endArrow=classic;html=1;rounded=0;entryX=0.02;entryY=0.183;entryDx=0;entryDy=0;entryPerimeter=0;" parent="1" edge="1">
          <mxGeometry width="50" height="50" relative="1" as="geometry">
            <mxPoint x="440" y="80" as="sourcePoint" />
            <mxPoint x="562" y="81" as="targetPoint" />
          </mxGeometry>
        </mxCell>
        <mxCell id="3K-KdEBF6QyR_X1sGFoG-263" value="mid" style="text;html=1;align=center;verticalAlign=middle;whiteSpace=wrap;rounded=0;" parent="1" vertex="1">
          <mxGeometry x="452" y="50" width="60" height="30" as="geometry" />
        </mxCell>
        <mxCell id="3K-KdEBF6QyR_X1sGFoG-264" value="" style="endArrow=classic;html=1;rounded=0;entryX=0.02;entryY=0.183;entryDx=0;entryDy=0;entryPerimeter=0;" parent="1" edge="1">
          <mxGeometry width="50" height="50" relative="1" as="geometry">
            <mxPoint x="441" y="120" as="sourcePoint" />
            <mxPoint x="563" y="121" as="targetPoint" />
          </mxGeometry>
        </mxCell>
        <mxCell id="3K-KdEBF6QyR_X1sGFoG-265" value="" style="endArrow=classic;html=1;rounded=0;entryX=0.02;entryY=0.183;entryDx=0;entryDy=0;entryPerimeter=0;" parent="1" edge="1">
          <mxGeometry width="50" height="50" relative="1" as="geometry">
            <mxPoint x="440" y="160" as="sourcePoint" />
            <mxPoint x="562" y="161" as="targetPoint" />
          </mxGeometry>
        </mxCell>
        <mxCell id="3K-KdEBF6QyR_X1sGFoG-266" value="out4" style="text;html=1;align=center;verticalAlign=middle;whiteSpace=wrap;rounded=0;" parent="1" vertex="1">
          <mxGeometry x="452" y="90" width="60" height="30" as="geometry" />
        </mxCell>
        <mxCell id="3K-KdEBF6QyR_X1sGFoG-267" value="max" style="text;html=1;align=center;verticalAlign=middle;whiteSpace=wrap;rounded=0;" parent="1" vertex="1">
          <mxGeometry x="452" y="130" width="60" height="30" as="geometry" />
        </mxCell>
        <mxCell id="3K-KdEBF6QyR_X1sGFoG-268" value="SortingNetwork" style="rounded=0;whiteSpace=wrap;html=1;" parent="1" vertex="1">
          <mxGeometry x="866" y="-165" width="90" height="140" as="geometry" />
        </mxCell>
        <mxCell id="3K-KdEBF6QyR_X1sGFoG-269" value="" style="endArrow=classic;html=1;rounded=0;entryX=0.01;entryY=0.212;entryDx=0;entryDy=0;entryPerimeter=0;" parent="1" edge="1">
          <mxGeometry width="50" height="50" relative="1" as="geometry">
            <mxPoint x="770.1" y="-134.68" as="sourcePoint" />
            <mxPoint x="865.9999999999999" y="-134.99999999999994" as="targetPoint" />
          </mxGeometry>
        </mxCell>
        <mxCell id="3K-KdEBF6QyR_X1sGFoG-270" value="S1" style="text;html=1;align=center;verticalAlign=middle;whiteSpace=wrap;rounded=0;" parent="1" vertex="1">
          <mxGeometry x="710" y="-150" width="60" height="30" as="geometry" />
        </mxCell>
        <mxCell id="3K-KdEBF6QyR_X1sGFoG-271" value="" style="endArrow=classic;html=1;rounded=0;entryX=0.01;entryY=0.212;entryDx=0;entryDy=0;entryPerimeter=0;" parent="1" edge="1">
          <mxGeometry width="50" height="50" relative="1" as="geometry">
            <mxPoint x="770" y="-95" as="sourcePoint" />
            <mxPoint x="866" y="-95" as="targetPoint" />
          </mxGeometry>
        </mxCell>
        <mxCell id="3K-KdEBF6QyR_X1sGFoG-273" value="S2" style="text;html=1;align=center;verticalAlign=middle;whiteSpace=wrap;rounded=0;" parent="1" vertex="1">
          <mxGeometry x="710" y="-115" width="60" height="30" as="geometry" />
        </mxCell>
        <mxCell id="3K-KdEBF6QyR_X1sGFoG-274" value="" style="endArrow=classic;html=1;rounded=0;entryX=0.01;entryY=0.212;entryDx=0;entryDy=0;entryPerimeter=0;" parent="1" edge="1">
          <mxGeometry width="50" height="50" relative="1" as="geometry">
            <mxPoint x="770" y="-55" as="sourcePoint" />
            <mxPoint x="866" y="-55" as="targetPoint" />
          </mxGeometry>
        </mxCell>
        <mxCell id="3K-KdEBF6QyR_X1sGFoG-275" value="S3" style="text;html=1;align=center;verticalAlign=middle;whiteSpace=wrap;rounded=0;" parent="1" vertex="1">
          <mxGeometry x="710" y="-70" width="60" height="30" as="geometry" />
        </mxCell>
        <mxCell id="3K-KdEBF6QyR_X1sGFoG-276" value="SortingNetwork" style="rounded=0;whiteSpace=wrap;html=1;" parent="1" vertex="1">
          <mxGeometry x="1075" y="1.8499999999999996" width="90" height="140" as="geometry" />
        </mxCell>
        <mxCell id="3K-KdEBF6QyR_X1sGFoG-277" value="" style="endArrow=classic;html=1;rounded=0;entryX=-0.005;entryY=0.484;entryDx=0;entryDy=0;entryPerimeter=0;exitX=1;exitY=0.5;exitDx=0;exitDy=0;" parent="1" source="3K-KdEBF6QyR_X1sGFoG-278" target="3K-KdEBF6QyR_X1sGFoG-276" edge="1">
          <mxGeometry width="50" height="50" relative="1" as="geometry">
            <mxPoint x="770" y="75" as="sourcePoint" />
            <mxPoint x="866" y="75" as="targetPoint" />
          </mxGeometry>
        </mxCell>
        <mxCell id="3K-KdEBF6QyR_X1sGFoG-278" value="S4" style="text;html=1;align=center;verticalAlign=middle;whiteSpace=wrap;rounded=0;" parent="1" vertex="1">
          <mxGeometry x="710" y="55" width="60" height="30" as="geometry" />
        </mxCell>
        <mxCell id="3K-KdEBF6QyR_X1sGFoG-279" value="" style="endArrow=classic;html=1;rounded=0;entryX=-0.011;entryY=0.843;entryDx=0;entryDy=0;entryPerimeter=0;exitX=1;exitY=1;exitDx=0;exitDy=0;" parent="1" source="3K-KdEBF6QyR_X1sGFoG-280" target="3K-KdEBF6QyR_X1sGFoG-276" edge="1">
          <mxGeometry width="50" height="50" relative="1" as="geometry">
            <mxPoint x="770" y="115" as="sourcePoint" />
            <mxPoint x="866" y="115" as="targetPoint" />
          </mxGeometry>
        </mxCell>
        <mxCell id="3K-KdEBF6QyR_X1sGFoG-280" value="S5" style="text;html=1;align=center;verticalAlign=middle;whiteSpace=wrap;rounded=0;" parent="1" vertex="1">
          <mxGeometry x="710" y="90" width="60" height="30" as="geometry" />
        </mxCell>
        <mxCell id="3K-KdEBF6QyR_X1sGFoG-281" value="" style="endArrow=classic;html=1;rounded=0;exitX=1.004;exitY=0.788;exitDx=0;exitDy=0;exitPerimeter=0;entryX=-0.002;entryY=0.206;entryDx=0;entryDy=0;entryPerimeter=0;" parent="1" source="3K-KdEBF6QyR_X1sGFoG-268" target="3K-KdEBF6QyR_X1sGFoG-276" edge="1">
          <mxGeometry width="50" height="50" relative="1" as="geometry">
            <mxPoint x="1011" y="-35" as="sourcePoint" />
            <mxPoint x="1061" y="-85" as="targetPoint" />
            <Array as="points">
              <mxPoint x="1000" y="-55" />
              <mxPoint x="1000" y="-15" />
              <mxPoint x="1000" y="-20" />
              <mxPoint x="1000" y="30" />
            </Array>
          </mxGeometry>
        </mxCell>
        <mxCell id="3K-KdEBF6QyR_X1sGFoG-283" value="max" style="text;html=1;align=center;verticalAlign=middle;whiteSpace=wrap;rounded=0;" parent="1" vertex="1">
          <mxGeometry x="1640" y="120" width="60" height="30" as="geometry" />
        </mxCell>
        <mxCell id="3K-KdEBF6QyR_X1sGFoG-288" value="SortingNetwork" style="rounded=0;whiteSpace=wrap;html=1;" parent="1" vertex="1">
          <mxGeometry x="1255" y="-115" width="90" height="140" as="geometry" />
        </mxCell>
        <mxCell id="3K-KdEBF6QyR_X1sGFoG-292" value="out4" style="text;html=1;align=center;verticalAlign=middle;whiteSpace=wrap;rounded=0;" parent="1" vertex="1">
          <mxGeometry x="1640" y="40" width="60" height="30" as="geometry" />
        </mxCell>
        <mxCell id="3K-KdEBF6QyR_X1sGFoG-297" value="SortingNetwork" style="rounded=0;whiteSpace=wrap;html=1;" parent="1" vertex="1">
          <mxGeometry x="1460" y="-163.70000000000002" width="90" height="140" as="geometry" />
        </mxCell>
        <mxCell id="3K-KdEBF6QyR_X1sGFoG-299" value="" style="endArrow=classic;html=1;rounded=0;" parent="1" edge="1">
          <mxGeometry width="50" height="50" relative="1" as="geometry">
            <mxPoint x="1550" y="-51.650000000000006" as="sourcePoint" />
            <mxPoint x="1680" y="-50.650000000000006" as="targetPoint" />
          </mxGeometry>
        </mxCell>
        <mxCell id="3K-KdEBF6QyR_X1sGFoG-300" value="" style="endArrow=classic;html=1;rounded=0;" parent="1" edge="1">
          <mxGeometry width="50" height="50" relative="1" as="geometry">
            <mxPoint x="1550" y="-90.65" as="sourcePoint" />
            <mxPoint x="1680" y="-89.65" as="targetPoint" />
          </mxGeometry>
        </mxCell>
        <mxCell id="3K-KdEBF6QyR_X1sGFoG-301" value="" style="endArrow=classic;html=1;rounded=0;" parent="1" edge="1">
          <mxGeometry width="50" height="50" relative="1" as="geometry">
            <mxPoint x="1550" y="-130.65" as="sourcePoint" />
            <mxPoint x="1680" y="-129.65" as="targetPoint" />
          </mxGeometry>
        </mxCell>
        <mxCell id="3K-KdEBF6QyR_X1sGFoG-302" value="min" style="text;html=1;align=center;verticalAlign=middle;whiteSpace=wrap;rounded=0;" parent="1" vertex="1">
          <mxGeometry x="1600" y="-165.65" width="60" height="30" as="geometry" />
        </mxCell>
        <mxCell id="3K-KdEBF6QyR_X1sGFoG-303" value="out2" style="text;html=1;align=center;verticalAlign=middle;whiteSpace=wrap;rounded=0;" parent="1" vertex="1">
          <mxGeometry x="1600" y="-120.65" width="60" height="30" as="geometry" />
        </mxCell>
        <mxCell id="3K-KdEBF6QyR_X1sGFoG-304" value="mid" style="text;html=1;align=center;verticalAlign=middle;whiteSpace=wrap;rounded=0;" parent="1" vertex="1">
          <mxGeometry x="1600" y="-80.65" width="60" height="30" as="geometry" />
        </mxCell>
        <mxCell id="3K-KdEBF6QyR_X1sGFoG-308" value="SortingNetwork" style="rounded=0;whiteSpace=wrap;html=1;" parent="1" vertex="1">
          <mxGeometry x="890" y="263.7" width="90" height="106.3" as="geometry" />
        </mxCell>
        <mxCell id="3K-KdEBF6QyR_X1sGFoG-310" value="SortingNetwork" style="rounded=0;whiteSpace=wrap;html=1;" parent="1" vertex="1">
          <mxGeometry x="1060" y="291.84999999999997" width="90" height="106.3" as="geometry" />
        </mxCell>
        <mxCell id="3K-KdEBF6QyR_X1sGFoG-311" value="" style="endArrow=none;html=1;rounded=0;exitX=0.995;exitY=0.912;exitDx=0;exitDy=0;exitPerimeter=0;entryX=-0.031;entryY=0.643;entryDx=0;entryDy=0;entryPerimeter=0;" parent="1" source="3K-KdEBF6QyR_X1sGFoG-308" target="3K-KdEBF6QyR_X1sGFoG-310" edge="1">
          <mxGeometry width="50" height="50" relative="1" as="geometry">
            <mxPoint x="1010" y="400" as="sourcePoint" />
            <mxPoint x="1060" y="350" as="targetPoint" />
          </mxGeometry>
        </mxCell>
        <mxCell id="3K-KdEBF6QyR_X1sGFoG-314" value="" style="group" parent="1" vertex="1" connectable="0">
          <mxGeometry x="1295.5" y="430" width="9" height="23.69534555712272" as="geometry" />
        </mxCell>
        <mxCell id="3K-KdEBF6QyR_X1sGFoG-315" value="" style="rounded=0;whiteSpace=wrap;html=1;" parent="3K-KdEBF6QyR_X1sGFoG-314" vertex="1">
          <mxGeometry width="9" height="23.695345557122707" as="geometry" />
        </mxCell>
        <mxCell id="3K-KdEBF6QyR_X1sGFoG-316" value="" style="triangle;whiteSpace=wrap;html=1;rotation=270;" parent="3K-KdEBF6QyR_X1sGFoG-314" vertex="1">
          <mxGeometry x="1" y="18" width="7" height="4" as="geometry" />
        </mxCell>
        <mxCell id="3K-KdEBF6QyR_X1sGFoG-317" value="max" style="text;html=1;align=center;verticalAlign=middle;whiteSpace=wrap;rounded=0;" parent="1" vertex="1">
          <mxGeometry x="1239" y="390" width="60" height="30" as="geometry" />
        </mxCell>
        <mxCell id="3K-KdEBF6QyR_X1sGFoG-321" value="" style="endArrow=none;html=1;rounded=0;entryX=0;entryY=0.19;entryDx=0;entryDy=0;entryPerimeter=0;exitX=1;exitY=0.755;exitDx=0;exitDy=0;exitPerimeter=0;" parent="1" source="3K-KdEBF6QyR_X1sGFoG-322" target="3K-KdEBF6QyR_X1sGFoG-323" edge="1">
          <mxGeometry width="50" height="50" relative="1" as="geometry">
            <mxPoint x="956" y="640" as="sourcePoint" />
            <mxPoint x="1006" y="590" as="targetPoint" />
          </mxGeometry>
        </mxCell>
        <mxCell id="3K-KdEBF6QyR_X1sGFoG-322" value="SortingNetwork" style="rounded=0;whiteSpace=wrap;html=1;" parent="1" vertex="1">
          <mxGeometry x="860" y="600" width="90" height="106.3" as="geometry" />
        </mxCell>
        <mxCell id="3K-KdEBF6QyR_X1sGFoG-323" value="SortingNetwork" style="rounded=0;whiteSpace=wrap;html=1;" parent="1" vertex="1">
          <mxGeometry x="979.5" y="660" width="90" height="106.3" as="geometry" />
        </mxCell>
        <mxCell id="3K-KdEBF6QyR_X1sGFoG-324" value="SortingNetwork" style="rounded=0;whiteSpace=wrap;html=1;" parent="1" vertex="1">
          <mxGeometry x="1100" y="600" width="90" height="106.3" as="geometry" />
        </mxCell>
        <mxCell id="3K-KdEBF6QyR_X1sGFoG-325" value="" style="endArrow=none;html=1;rounded=0;exitX=0.999;exitY=0.185;exitDx=0;exitDy=0;exitPerimeter=0;entryX=0;entryY=0.75;entryDx=0;entryDy=0;" parent="1" source="3K-KdEBF6QyR_X1sGFoG-323" target="3K-KdEBF6QyR_X1sGFoG-324" edge="1">
          <mxGeometry width="50" height="50" relative="1" as="geometry">
            <mxPoint x="1050" y="680" as="sourcePoint" />
            <mxPoint x="1100" y="689" as="targetPoint" />
          </mxGeometry>
        </mxCell>
        <mxCell id="3K-KdEBF6QyR_X1sGFoG-330" value="" style="group" parent="1" vertex="1" connectable="0">
          <mxGeometry x="1295.5" y="550" width="9" height="23.69534555712272" as="geometry" />
        </mxCell>
        <mxCell id="3K-KdEBF6QyR_X1sGFoG-331" value="" style="rounded=0;whiteSpace=wrap;html=1;" parent="3K-KdEBF6QyR_X1sGFoG-330" vertex="1">
          <mxGeometry width="9" height="23.695345557122707" as="geometry" />
        </mxCell>
        <mxCell id="3K-KdEBF6QyR_X1sGFoG-332" value="" style="triangle;whiteSpace=wrap;html=1;rotation=270;" parent="3K-KdEBF6QyR_X1sGFoG-330" vertex="1">
          <mxGeometry x="1" y="18" width="7" height="4" as="geometry" />
        </mxCell>
        <mxCell id="F14II7xJjJFJrzi5FcKY-19" value="" style="group" parent="1" vertex="1" connectable="0">
          <mxGeometry x="1541" y="483.15000000000003" width="9" height="23.69534555712272" as="geometry" />
        </mxCell>
        <mxCell id="F14II7xJjJFJrzi5FcKY-20" value="" style="rounded=0;whiteSpace=wrap;html=1;" parent="F14II7xJjJFJrzi5FcKY-19" vertex="1">
          <mxGeometry width="9" height="23.695345557122707" as="geometry" />
        </mxCell>
        <mxCell id="F14II7xJjJFJrzi5FcKY-21" value="" style="triangle;whiteSpace=wrap;html=1;rotation=270;" parent="F14II7xJjJFJrzi5FcKY-19" vertex="1">
          <mxGeometry x="1" y="18" width="7" height="4" as="geometry" />
        </mxCell>
        <mxCell id="F14II7xJjJFJrzi5FcKY-28" value="" style="group" parent="1" vertex="1" connectable="0">
          <mxGeometry x="971" y="-66.85" width="9" height="23.69534555712272" as="geometry" />
        </mxCell>
        <mxCell id="F14II7xJjJFJrzi5FcKY-29" value="" style="rounded=0;whiteSpace=wrap;html=1;" parent="F14II7xJjJFJrzi5FcKY-28" vertex="1">
          <mxGeometry width="9" height="23.695345557122707" as="geometry" />
        </mxCell>
        <mxCell id="F14II7xJjJFJrzi5FcKY-30" value="" style="triangle;whiteSpace=wrap;html=1;rotation=270;" parent="F14II7xJjJFJrzi5FcKY-28" vertex="1">
          <mxGeometry x="1" y="18" width="7" height="4" as="geometry" />
        </mxCell>
        <mxCell id="F14II7xJjJFJrzi5FcKY-38" value="" style="group" parent="1" vertex="1" connectable="0">
          <mxGeometry x="971" y="106.3" width="9" height="23.69534555712272" as="geometry" />
        </mxCell>
        <mxCell id="F14II7xJjJFJrzi5FcKY-39" value="" style="rounded=0;whiteSpace=wrap;html=1;" parent="F14II7xJjJFJrzi5FcKY-38" vertex="1">
          <mxGeometry width="9" height="23.695345557122707" as="geometry" />
        </mxCell>
        <mxCell id="F14II7xJjJFJrzi5FcKY-40" value="" style="triangle;whiteSpace=wrap;html=1;rotation=270;" parent="F14II7xJjJFJrzi5FcKY-38" vertex="1">
          <mxGeometry x="1" y="18" width="7" height="4" as="geometry" />
        </mxCell>
        <mxCell id="F14II7xJjJFJrzi5FcKY-76" value="" style="group" parent="1" vertex="1" connectable="0">
          <mxGeometry x="971" y="61.29999999999998" width="9" height="23.69534555712272" as="geometry" />
        </mxCell>
        <mxCell id="F14II7xJjJFJrzi5FcKY-77" value="" style="rounded=0;whiteSpace=wrap;html=1;" parent="F14II7xJjJFJrzi5FcKY-76" vertex="1">
          <mxGeometry width="9" height="23.695345557122707" as="geometry" />
        </mxCell>
        <mxCell id="F14II7xJjJFJrzi5FcKY-78" value="" style="triangle;whiteSpace=wrap;html=1;rotation=270;" parent="F14II7xJjJFJrzi5FcKY-76" vertex="1">
          <mxGeometry x="1" y="18" width="7" height="4" as="geometry" />
        </mxCell>
        <mxCell id="F14II7xJjJFJrzi5FcKY-79" value="" style="endArrow=classic;html=1;rounded=0;exitX=0.999;exitY=0.468;exitDx=0;exitDy=0;entryX=0.015;entryY=0.11;entryDx=0;entryDy=0;entryPerimeter=0;exitPerimeter=0;" parent="1" source="3K-KdEBF6QyR_X1sGFoG-268" target="3K-KdEBF6QyR_X1sGFoG-288" edge="1">
          <mxGeometry width="50" height="50" relative="1" as="geometry">
            <mxPoint x="1070" y="-66.85" as="sourcePoint" />
            <mxPoint x="1120" y="-116.85" as="targetPoint" />
          </mxGeometry>
        </mxCell>
        <mxCell id="F14II7xJjJFJrzi5FcKY-25" value="" style="group" parent="1" vertex="1" connectable="0">
          <mxGeometry x="971" y="-111.85000000000001" width="9" height="23.69534555712272" as="geometry" />
        </mxCell>
        <mxCell id="F14II7xJjJFJrzi5FcKY-26" value="" style="rounded=0;whiteSpace=wrap;html=1;" parent="F14II7xJjJFJrzi5FcKY-25" vertex="1">
          <mxGeometry width="9" height="23.695345557122707" as="geometry" />
        </mxCell>
        <mxCell id="F14II7xJjJFJrzi5FcKY-27" value="" style="triangle;whiteSpace=wrap;html=1;rotation=270;" parent="F14II7xJjJFJrzi5FcKY-25" vertex="1">
          <mxGeometry x="1" y="18" width="7" height="4" as="geometry" />
        </mxCell>
        <mxCell id="F14II7xJjJFJrzi5FcKY-91" value="" style="endArrow=classic;html=1;rounded=0;entryX=-0.004;entryY=0.172;entryDx=0;entryDy=0;entryPerimeter=0;exitX=0.999;exitY=0.179;exitDx=0;exitDy=0;exitPerimeter=0;" parent="1" source="3K-KdEBF6QyR_X1sGFoG-268" target="3K-KdEBF6QyR_X1sGFoG-297" edge="1">
          <mxGeometry width="50" height="50" relative="1" as="geometry">
            <mxPoint x="960" y="-140" as="sourcePoint" />
            <mxPoint x="1135" y="-170" as="targetPoint" />
          </mxGeometry>
        </mxCell>
        <mxCell id="F14II7xJjJFJrzi5FcKY-22" value="" style="group" parent="1" vertex="1" connectable="0">
          <mxGeometry x="971" y="-150.00000000000003" width="9" height="23.69534555712272" as="geometry" />
        </mxCell>
        <mxCell id="F14II7xJjJFJrzi5FcKY-23" value="" style="rounded=0;whiteSpace=wrap;html=1;" parent="F14II7xJjJFJrzi5FcKY-22" vertex="1">
          <mxGeometry width="9" height="23.695345557122707" as="geometry" />
        </mxCell>
        <mxCell id="F14II7xJjJFJrzi5FcKY-24" value="" style="triangle;whiteSpace=wrap;html=1;rotation=270;" parent="F14II7xJjJFJrzi5FcKY-22" vertex="1">
          <mxGeometry x="1" y="18" width="7" height="4" as="geometry" />
        </mxCell>
        <mxCell id="F14II7xJjJFJrzi5FcKY-93" value="" style="endArrow=classic;html=1;rounded=0;exitX=0.994;exitY=0.094;exitDx=0;exitDy=0;exitPerimeter=0;entryX=0;entryY=0.5;entryDx=0;entryDy=0;" parent="1" source="3K-KdEBF6QyR_X1sGFoG-276" edge="1">
          <mxGeometry width="50" height="50" relative="1" as="geometry">
            <mxPoint x="1164" y="15" as="sourcePoint" />
            <mxPoint x="1255" y="-40" as="targetPoint" />
            <Array as="points">
              <mxPoint x="1210" y="15" />
              <mxPoint x="1230" y="-40" />
            </Array>
          </mxGeometry>
        </mxCell>
        <mxCell id="F14II7xJjJFJrzi5FcKY-80" value="" style="group" parent="1" vertex="1" connectable="0">
          <mxGeometry x="1190" y="1.3000000000000014" width="9" height="23.69534555712272" as="geometry" />
        </mxCell>
        <mxCell id="F14II7xJjJFJrzi5FcKY-81" value="" style="rounded=0;whiteSpace=wrap;html=1;" parent="F14II7xJjJFJrzi5FcKY-80" vertex="1">
          <mxGeometry width="9" height="23.695345557122707" as="geometry" />
        </mxCell>
        <mxCell id="F14II7xJjJFJrzi5FcKY-82" value="" style="triangle;whiteSpace=wrap;html=1;rotation=270;" parent="F14II7xJjJFJrzi5FcKY-80" vertex="1">
          <mxGeometry x="1" y="18" width="7" height="4" as="geometry" />
        </mxCell>
        <mxCell id="F14II7xJjJFJrzi5FcKY-94" value="" style="endArrow=classic;html=1;rounded=0;exitX=1.002;exitY=0.412;exitDx=0;exitDy=0;exitPerimeter=0;entryX=-0.011;entryY=0.818;entryDx=0;entryDy=0;entryPerimeter=0;" parent="1" source="3K-KdEBF6QyR_X1sGFoG-276" target="3K-KdEBF6QyR_X1sGFoG-288" edge="1">
          <mxGeometry width="50" height="50" relative="1" as="geometry">
            <mxPoint x="1180" y="90" as="sourcePoint" />
            <mxPoint x="1230" y="40" as="targetPoint" />
            <Array as="points">
              <mxPoint x="1210" y="60" />
              <mxPoint x="1230" />
            </Array>
          </mxGeometry>
        </mxCell>
        <mxCell id="F14II7xJjJFJrzi5FcKY-85" value="" style="group" parent="1" vertex="1" connectable="0">
          <mxGeometry x="1190" y="50" width="9" height="23.69534555712272" as="geometry" />
        </mxCell>
        <mxCell id="F14II7xJjJFJrzi5FcKY-86" value="" style="rounded=0;whiteSpace=wrap;html=1;" parent="F14II7xJjJFJrzi5FcKY-85" vertex="1">
          <mxGeometry width="9" height="23.695345557122707" as="geometry" />
        </mxCell>
        <mxCell id="F14II7xJjJFJrzi5FcKY-87" value="" style="triangle;whiteSpace=wrap;html=1;rotation=270;" parent="F14II7xJjJFJrzi5FcKY-85" vertex="1">
          <mxGeometry x="1" y="18" width="7" height="4" as="geometry" />
        </mxCell>
        <mxCell id="F14II7xJjJFJrzi5FcKY-95" value="" style="endArrow=classic;html=1;rounded=0;exitX=0.998;exitY=0.85;exitDx=0;exitDy=0;exitPerimeter=0;" parent="1" source="3K-KdEBF6QyR_X1sGFoG-276" edge="1">
          <mxGeometry width="50" height="50" relative="1" as="geometry">
            <mxPoint x="1219" y="146.85" as="sourcePoint" />
            <mxPoint x="1680" y="120" as="targetPoint" />
            <Array as="points">
              <mxPoint x="1245" y="120" />
            </Array>
          </mxGeometry>
        </mxCell>
        <mxCell id="F14II7xJjJFJrzi5FcKY-88" value="" style="group" parent="1" vertex="1" connectable="0">
          <mxGeometry x="1190" y="110" width="9" height="23.69534555712272" as="geometry" />
        </mxCell>
        <mxCell id="F14II7xJjJFJrzi5FcKY-89" value="" style="rounded=0;whiteSpace=wrap;html=1;" parent="F14II7xJjJFJrzi5FcKY-88" vertex="1">
          <mxGeometry width="9" height="23.695345557122707" as="geometry" />
        </mxCell>
        <mxCell id="F14II7xJjJFJrzi5FcKY-90" value="" style="triangle;whiteSpace=wrap;html=1;rotation=270;" parent="F14II7xJjJFJrzi5FcKY-88" vertex="1">
          <mxGeometry x="1" y="18" width="7" height="4" as="geometry" />
        </mxCell>
        <mxCell id="F14II7xJjJFJrzi5FcKY-102" value="" style="endArrow=classic;html=1;rounded=0;exitX=1;exitY=0.821;exitDx=0;exitDy=0;exitPerimeter=0;" parent="1" source="3K-KdEBF6QyR_X1sGFoG-288" edge="1">
          <mxGeometry width="50" height="50" relative="1" as="geometry">
            <mxPoint x="1350" as="sourcePoint" />
            <mxPoint x="1680" y="80" as="targetPoint" />
            <Array as="points">
              <mxPoint x="1400" />
              <mxPoint x="1400" y="80" />
            </Array>
          </mxGeometry>
        </mxCell>
        <mxCell id="F14II7xJjJFJrzi5FcKY-96" value="" style="group" parent="1" vertex="1" connectable="0">
          <mxGeometry x="1380" y="-10" width="9" height="23.69534555712272" as="geometry" />
        </mxCell>
        <mxCell id="F14II7xJjJFJrzi5FcKY-97" value="" style="rounded=0;whiteSpace=wrap;html=1;" parent="F14II7xJjJFJrzi5FcKY-96" vertex="1">
          <mxGeometry width="9" height="23.695345557122707" as="geometry" />
        </mxCell>
        <mxCell id="F14II7xJjJFJrzi5FcKY-98" value="" style="triangle;whiteSpace=wrap;html=1;rotation=270;" parent="F14II7xJjJFJrzi5FcKY-96" vertex="1">
          <mxGeometry x="1" y="18" width="7" height="4" as="geometry" />
        </mxCell>
        <mxCell id="F14II7xJjJFJrzi5FcKY-106" value="" style="endArrow=classic;html=1;rounded=0;exitX=0.994;exitY=0.067;exitDx=0;exitDy=0;exitPerimeter=0;entryX=0.016;entryY=0.412;entryDx=0;entryDy=0;entryPerimeter=0;" parent="1" source="3K-KdEBF6QyR_X1sGFoG-288" target="3K-KdEBF6QyR_X1sGFoG-297" edge="1">
          <mxGeometry width="50" height="50" relative="1" as="geometry">
            <mxPoint x="1390" y="-66.85" as="sourcePoint" />
            <mxPoint x="1440" y="-116.85" as="targetPoint" />
          </mxGeometry>
        </mxCell>
        <mxCell id="F14II7xJjJFJrzi5FcKY-103" value="" style="group" parent="1" vertex="1" connectable="0">
          <mxGeometry x="1380" y="-120" width="9" height="23.69534555712272" as="geometry" />
        </mxCell>
        <mxCell id="F14II7xJjJFJrzi5FcKY-104" value="" style="rounded=0;whiteSpace=wrap;html=1;" parent="F14II7xJjJFJrzi5FcKY-103" vertex="1">
          <mxGeometry width="9" height="23.695345557122707" as="geometry" />
        </mxCell>
        <mxCell id="F14II7xJjJFJrzi5FcKY-105" value="" style="triangle;whiteSpace=wrap;html=1;rotation=270;" parent="F14II7xJjJFJrzi5FcKY-103" vertex="1">
          <mxGeometry x="1" y="18" width="7" height="4" as="geometry" />
        </mxCell>
        <mxCell id="F14II7xJjJFJrzi5FcKY-107" value="" style="endArrow=classic;html=1;rounded=0;exitX=1;exitY=0.424;exitDx=0;exitDy=0;exitPerimeter=0;entryX=-0.022;entryY=0.779;entryDx=0;entryDy=0;entryPerimeter=0;" parent="1" source="3K-KdEBF6QyR_X1sGFoG-288" target="3K-KdEBF6QyR_X1sGFoG-297" edge="1">
          <mxGeometry width="50" height="50" relative="1" as="geometry">
            <mxPoint x="1350" as="sourcePoint" />
            <mxPoint x="1400" y="-50" as="targetPoint" />
          </mxGeometry>
        </mxCell>
        <mxCell id="F14II7xJjJFJrzi5FcKY-99" value="" style="group" parent="1" vertex="1" connectable="0">
          <mxGeometry x="1380" y="-63.7" width="9" height="23.69534555712272" as="geometry" />
        </mxCell>
        <mxCell id="F14II7xJjJFJrzi5FcKY-100" value="" style="rounded=0;whiteSpace=wrap;html=1;" parent="F14II7xJjJFJrzi5FcKY-99" vertex="1">
          <mxGeometry width="9" height="23.695345557122707" as="geometry" />
        </mxCell>
        <mxCell id="F14II7xJjJFJrzi5FcKY-101" value="" style="triangle;whiteSpace=wrap;html=1;rotation=270;" parent="F14II7xJjJFJrzi5FcKY-99" vertex="1">
          <mxGeometry x="1" y="18" width="7" height="4" as="geometry" />
        </mxCell>
        <mxCell id="F14II7xJjJFJrzi5FcKY-108" value="" style="group" parent="1" vertex="1" connectable="0">
          <mxGeometry x="1580" y="-143.7" width="9" height="23.69534555712272" as="geometry" />
        </mxCell>
        <mxCell id="F14II7xJjJFJrzi5FcKY-109" value="" style="rounded=0;whiteSpace=wrap;html=1;" parent="F14II7xJjJFJrzi5FcKY-108" vertex="1">
          <mxGeometry width="9" height="23.695345557122707" as="geometry" />
        </mxCell>
        <mxCell id="F14II7xJjJFJrzi5FcKY-110" value="" style="triangle;whiteSpace=wrap;html=1;rotation=270;" parent="F14II7xJjJFJrzi5FcKY-108" vertex="1">
          <mxGeometry x="1" y="18" width="7" height="4" as="geometry" />
        </mxCell>
        <mxCell id="F14II7xJjJFJrzi5FcKY-113" value="" style="group" parent="1" vertex="1" connectable="0">
          <mxGeometry x="1580" y="-100" width="9" height="23.69534555712272" as="geometry" />
        </mxCell>
        <mxCell id="F14II7xJjJFJrzi5FcKY-114" value="" style="rounded=0;whiteSpace=wrap;html=1;" parent="F14II7xJjJFJrzi5FcKY-113" vertex="1">
          <mxGeometry width="9" height="23.695345557122707" as="geometry" />
        </mxCell>
        <mxCell id="F14II7xJjJFJrzi5FcKY-115" value="" style="triangle;whiteSpace=wrap;html=1;rotation=270;" parent="F14II7xJjJFJrzi5FcKY-113" vertex="1">
          <mxGeometry x="1" y="18" width="7" height="4" as="geometry" />
        </mxCell>
        <mxCell id="F14II7xJjJFJrzi5FcKY-116" value="" style="group" parent="1" vertex="1" connectable="0">
          <mxGeometry x="1580" y="-59.999999999999986" width="9" height="23.69534555712272" as="geometry" />
        </mxCell>
        <mxCell id="F14II7xJjJFJrzi5FcKY-117" value="" style="rounded=0;whiteSpace=wrap;html=1;" parent="F14II7xJjJFJrzi5FcKY-116" vertex="1">
          <mxGeometry width="9" height="23.695345557122707" as="geometry" />
        </mxCell>
        <mxCell id="F14II7xJjJFJrzi5FcKY-118" value="" style="triangle;whiteSpace=wrap;html=1;rotation=270;" parent="F14II7xJjJFJrzi5FcKY-116" vertex="1">
          <mxGeometry x="1" y="18" width="7" height="4" as="geometry" />
        </mxCell>
        <mxCell id="F14II7xJjJFJrzi5FcKY-120" value="" style="group" parent="1" vertex="1" connectable="0">
          <mxGeometry x="1020" y="350" width="9" height="23.69534555712272" as="geometry" />
        </mxCell>
        <mxCell id="F14II7xJjJFJrzi5FcKY-121" value="" style="rounded=0;whiteSpace=wrap;html=1;" parent="F14II7xJjJFJrzi5FcKY-120" vertex="1">
          <mxGeometry width="9" height="23.695345557122707" as="geometry" />
        </mxCell>
        <mxCell id="F14II7xJjJFJrzi5FcKY-122" value="" style="triangle;whiteSpace=wrap;html=1;rotation=270;" parent="F14II7xJjJFJrzi5FcKY-120" vertex="1">
          <mxGeometry x="1" y="18" width="7" height="4" as="geometry" />
        </mxCell>
        <mxCell id="F14II7xJjJFJrzi5FcKY-123" value="" style="group" parent="1" vertex="1" connectable="0">
          <mxGeometry x="960" y="670" width="9" height="23.69534555712272" as="geometry" />
        </mxCell>
        <mxCell id="F14II7xJjJFJrzi5FcKY-124" value="" style="rounded=0;whiteSpace=wrap;html=1;" parent="F14II7xJjJFJrzi5FcKY-123" vertex="1">
          <mxGeometry width="9" height="23.695345557122707" as="geometry" />
        </mxCell>
        <mxCell id="F14II7xJjJFJrzi5FcKY-125" value="" style="triangle;whiteSpace=wrap;html=1;rotation=270;" parent="F14II7xJjJFJrzi5FcKY-123" vertex="1">
          <mxGeometry x="1" y="18" width="7" height="4" as="geometry" />
        </mxCell>
        <mxCell id="F14II7xJjJFJrzi5FcKY-126" value="" style="group" parent="1" vertex="1" connectable="0">
          <mxGeometry x="1080" y="670" width="9" height="23.69534555712272" as="geometry" />
        </mxCell>
        <mxCell id="F14II7xJjJFJrzi5FcKY-127" value="" style="rounded=0;whiteSpace=wrap;html=1;" parent="F14II7xJjJFJrzi5FcKY-126" vertex="1">
          <mxGeometry width="9" height="23.695345557122707" as="geometry" />
        </mxCell>
        <mxCell id="F14II7xJjJFJrzi5FcKY-128" value="" style="triangle;whiteSpace=wrap;html=1;rotation=270;" parent="F14II7xJjJFJrzi5FcKY-126" vertex="1">
          <mxGeometry x="1" y="18" width="7" height="4" as="geometry" />
        </mxCell>
        <mxCell id="jqqaf2TlsOP0auP5mLFc-1" value="" style="group" vertex="1" connectable="0" parent="1">
          <mxGeometry x="1190" y="-110.00000000000001" width="9" height="23.69534555712272" as="geometry" />
        </mxCell>
        <mxCell id="jqqaf2TlsOP0auP5mLFc-2" value="" style="rounded=0;whiteSpace=wrap;html=1;" vertex="1" parent="jqqaf2TlsOP0auP5mLFc-1">
          <mxGeometry width="9" height="23.695345557122707" as="geometry" />
        </mxCell>
        <mxCell id="jqqaf2TlsOP0auP5mLFc-3" value="" style="triangle;whiteSpace=wrap;html=1;rotation=270;" vertex="1" parent="jqqaf2TlsOP0auP5mLFc-1">
          <mxGeometry x="1" y="18" width="7" height="4" as="geometry" />
        </mxCell>
        <mxCell id="jqqaf2TlsOP0auP5mLFc-4" value="" style="group" vertex="1" connectable="0" parent="1">
          <mxGeometry x="1190" y="-150" width="9" height="23.69534555712272" as="geometry" />
        </mxCell>
        <mxCell id="jqqaf2TlsOP0auP5mLFc-5" value="" style="rounded=0;whiteSpace=wrap;html=1;" vertex="1" parent="jqqaf2TlsOP0auP5mLFc-4">
          <mxGeometry width="9" height="23.695345557122707" as="geometry" />
        </mxCell>
        <mxCell id="jqqaf2TlsOP0auP5mLFc-6" value="" style="triangle;whiteSpace=wrap;html=1;rotation=270;" vertex="1" parent="jqqaf2TlsOP0auP5mLFc-4">
          <mxGeometry x="1" y="18" width="7" height="4" as="geometry" />
        </mxCell>
        <mxCell id="jqqaf2TlsOP0auP5mLFc-7" value="" style="group" vertex="1" connectable="0" parent="1">
          <mxGeometry x="1380" y="-150" width="9" height="23.69534555712272" as="geometry" />
        </mxCell>
        <mxCell id="jqqaf2TlsOP0auP5mLFc-8" value="" style="rounded=0;whiteSpace=wrap;html=1;" vertex="1" parent="jqqaf2TlsOP0auP5mLFc-7">
          <mxGeometry width="9" height="23.695345557122707" as="geometry" />
        </mxCell>
        <mxCell id="jqqaf2TlsOP0auP5mLFc-9" value="" style="triangle;whiteSpace=wrap;html=1;rotation=270;" vertex="1" parent="jqqaf2TlsOP0auP5mLFc-7">
          <mxGeometry x="1" y="18" width="7" height="4" as="geometry" />
        </mxCell>
        <mxCell id="jqqaf2TlsOP0auP5mLFc-12" value="" style="group" vertex="1" connectable="0" parent="1">
          <mxGeometry x="1380" y="110" width="9" height="23.69534555712272" as="geometry" />
        </mxCell>
        <mxCell id="jqqaf2TlsOP0auP5mLFc-13" value="" style="rounded=0;whiteSpace=wrap;html=1;" vertex="1" parent="jqqaf2TlsOP0auP5mLFc-12">
          <mxGeometry width="9" height="23.695345557122707" as="geometry" />
        </mxCell>
        <mxCell id="jqqaf2TlsOP0auP5mLFc-14" value="" style="triangle;whiteSpace=wrap;html=1;rotation=270;" vertex="1" parent="jqqaf2TlsOP0auP5mLFc-12">
          <mxGeometry x="1" y="18" width="7" height="4" as="geometry" />
        </mxCell>
        <mxCell id="jqqaf2TlsOP0auP5mLFc-26" value="" style="group" vertex="1" connectable="0" parent="1">
          <mxGeometry x="1580" y="110" width="9" height="23.69534555712272" as="geometry" />
        </mxCell>
        <mxCell id="jqqaf2TlsOP0auP5mLFc-27" value="" style="rounded=0;whiteSpace=wrap;html=1;" vertex="1" parent="jqqaf2TlsOP0auP5mLFc-26">
          <mxGeometry width="9" height="23.695345557122707" as="geometry" />
        </mxCell>
        <mxCell id="jqqaf2TlsOP0auP5mLFc-28" value="" style="triangle;whiteSpace=wrap;html=1;rotation=270;" vertex="1" parent="jqqaf2TlsOP0auP5mLFc-26">
          <mxGeometry x="1" y="18" width="7" height="4" as="geometry" />
        </mxCell>
        <mxCell id="jqqaf2TlsOP0auP5mLFc-29" value="" style="group" vertex="1" connectable="0" parent="1">
          <mxGeometry x="1580" y="70" width="9" height="23.69534555712272" as="geometry" />
        </mxCell>
        <mxCell id="jqqaf2TlsOP0auP5mLFc-30" value="" style="rounded=0;whiteSpace=wrap;html=1;" vertex="1" parent="jqqaf2TlsOP0auP5mLFc-29">
          <mxGeometry width="9" height="23.695345557122707" as="geometry" />
        </mxCell>
        <mxCell id="jqqaf2TlsOP0auP5mLFc-31" value="" style="triangle;whiteSpace=wrap;html=1;rotation=270;" vertex="1" parent="jqqaf2TlsOP0auP5mLFc-29">
          <mxGeometry x="1" y="18" width="7" height="4" as="geometry" />
        </mxCell>
        <mxCell id="jqqaf2TlsOP0auP5mLFc-33" value="" style="group" vertex="1" connectable="0" parent="1">
          <mxGeometry x="1230" y="550" width="9" height="23.69534555712272" as="geometry" />
        </mxCell>
        <mxCell id="jqqaf2TlsOP0auP5mLFc-34" value="" style="rounded=0;whiteSpace=wrap;html=1;" vertex="1" parent="jqqaf2TlsOP0auP5mLFc-33">
          <mxGeometry width="9" height="23.695345557122707" as="geometry" />
        </mxCell>
        <mxCell id="jqqaf2TlsOP0auP5mLFc-35" value="" style="triangle;whiteSpace=wrap;html=1;rotation=270;" vertex="1" parent="jqqaf2TlsOP0auP5mLFc-33">
          <mxGeometry x="1" y="18" width="7" height="4" as="geometry" />
        </mxCell>
        <mxCell id="jqqaf2TlsOP0auP5mLFc-37" value="" style="group" vertex="1" connectable="0" parent="1">
          <mxGeometry x="1271" y="430" width="9" height="23.69534555712272" as="geometry" />
        </mxCell>
        <mxCell id="jqqaf2TlsOP0auP5mLFc-38" value="" style="rounded=0;whiteSpace=wrap;html=1;" vertex="1" parent="jqqaf2TlsOP0auP5mLFc-37">
          <mxGeometry width="9" height="23.695345557122707" as="geometry" />
        </mxCell>
        <mxCell id="jqqaf2TlsOP0auP5mLFc-39" value="" style="triangle;whiteSpace=wrap;html=1;rotation=270;" vertex="1" parent="jqqaf2TlsOP0auP5mLFc-37">
          <mxGeometry x="1" y="18" width="7" height="4" as="geometry" />
        </mxCell>
        <mxCell id="jqqaf2TlsOP0auP5mLFc-40" value="" style="group" vertex="1" connectable="0" parent="1">
          <mxGeometry x="1250" y="430" width="9" height="23.69534555712272" as="geometry" />
        </mxCell>
        <mxCell id="jqqaf2TlsOP0auP5mLFc-41" value="" style="rounded=0;whiteSpace=wrap;html=1;" vertex="1" parent="jqqaf2TlsOP0auP5mLFc-40">
          <mxGeometry width="9" height="23.695345557122707" as="geometry" />
        </mxCell>
        <mxCell id="jqqaf2TlsOP0auP5mLFc-42" value="" style="triangle;whiteSpace=wrap;html=1;rotation=270;" vertex="1" parent="jqqaf2TlsOP0auP5mLFc-40">
          <mxGeometry x="1" y="18" width="7" height="4" as="geometry" />
        </mxCell>
      </root>
    </mxGraphModel>
  </diagram>
</mxfile>
